<svg width="1000" height="682" viewBox="0 0 1000 682" fill="none" xmlns="http://www.w3.org/2000/svg">
<path d="M59.0098 573.797C59.0098 569.023 57.2325 566.637 53.6778 566.637C52.1544 566.637 50.0385 567.195 47.3301 568.312L40.5762 571.105V590.961C52.8653 586.391 59.0098 580.669 59.0098 573.797ZM89.1739 574.66C89.1739 585.493 83.8249 594.092 73.127 600.457L95.1661 629.25H55.0489L40.7794 605.738V629.25H7.6192V548.152C29.0827 546.629 43.1491 545.867 49.8184 545.867C56.4877 545.867 61.5658 546.273 65.0528 547.086C74.6674 549.286 81.5398 553.992 85.67 561.203C87.9721 565.333 89.14 569.819 89.1739 574.66ZM156.394 584.207C156.394 581.228 155.006 579.738 152.23 579.738C149.048 580.043 146.983 581.685 146.035 584.664C145.561 586.086 145.222 587.745 145.019 589.641C144.85 591.503 144.579 593.5 144.207 595.633L155.328 593.145L156.292 585.375L156.394 584.207ZM149.539 607.312C149.539 607.312 148.608 607.312 146.746 607.312C145.865 607.312 145.019 607.279 144.207 607.211C144.207 611.24 146.356 613.44 150.656 613.812C151.841 613.914 152.992 613.965 154.109 613.965C156.986 613.965 160.592 613.305 164.925 611.984C169.292 610.664 173.203 608.514 176.656 605.535L179.804 621.328C172.255 627.862 160.846 631.129 145.578 631.129C136.809 631.129 129.277 628.573 122.98 623.461C116.141 617.875 112.722 610.139 112.722 600.254C112.722 592.806 114.652 586.12 118.511 580.195C122.1 574.779 126.958 570.665 133.085 567.855C139.213 565.046 145.832 563.641 152.941 563.641C162.149 563.641 169.106 565.655 173.812 569.684C178.552 573.712 180.904 578.689 180.871 584.613C180.871 590.538 178.044 595.802 172.39 600.406C166.736 605.01 159.119 607.312 149.539 607.312ZM253.88 624.68C247.448 629.047 240.626 631.23 233.415 631.23C226.238 631.23 220.398 629.199 215.895 625.137C211.393 621.04 209.142 615.539 209.142 608.633V582.227H203.352V566.129H209.142V549.066L239.509 545.969V566.129H253.88V582.227H239.509V598.172C239.509 602.945 240.575 606.415 242.708 608.582C244.875 610.715 248.599 611.781 253.88 611.781V624.68ZM322.928 589.945C319.814 589.945 316.614 591.079 313.33 593.348C310.047 595.616 308.388 597.766 308.354 599.797V629.25H277.784V566.129H308.354V572.883C310.08 570.276 312.213 568.194 314.752 566.637C317.325 565.079 320.05 564.148 322.928 563.844V589.945ZM390.199 584.105C389.522 583.767 388.642 583.598 387.558 583.598C386.509 583.598 385.341 583.919 384.055 584.562C382.768 585.172 381.499 586.018 380.246 587.102C377.605 589.404 375.388 592.197 373.594 595.48C371.799 598.764 370.902 601.794 370.902 604.57C370.902 607.312 371.952 609.158 374.051 610.105C374.795 610.444 375.709 610.613 376.793 610.613C377.876 610.613 379.01 610.292 380.195 609.648C381.38 608.971 382.565 608.074 383.75 606.957C386.221 604.621 388.388 601.794 390.25 598.477C392.112 595.125 393.043 592.129 393.043 589.488C393.043 586.848 392.095 585.053 390.199 584.105ZM380.347 631.129C370.665 631.129 362.32 628.065 355.312 621.938C347.831 615.438 344.09 607.262 344.09 597.41C344.09 587.525 347.594 579.451 354.601 573.188C361.609 566.891 370.259 563.742 380.551 563.742C390.842 563.742 399.492 566.823 406.5 572.984C413.508 579.112 417.028 587.322 417.062 597.613C417.096 604.215 415.42 610.055 412.035 615.133C408.65 620.211 404.13 624.138 398.476 626.914C392.823 629.69 386.78 631.095 380.347 631.129ZM493.169 573.797C493.169 569.023 491.392 566.637 487.837 566.637C486.314 566.637 484.198 567.195 481.49 568.312L474.736 571.105V590.961C487.025 586.391 493.169 580.669 493.169 573.797ZM523.333 574.66C523.333 585.493 517.984 594.092 507.286 600.457L529.325 629.25H489.208L474.939 605.738V629.25H441.779V548.152C463.242 546.629 477.309 545.867 483.978 545.867C490.647 545.867 495.725 546.273 499.212 547.086C508.827 549.286 515.699 553.992 519.829 561.203C522.131 565.333 523.299 569.819 523.333 574.66ZM569.276 536.879C574.253 536.879 577.943 537.928 580.346 540.027C582.75 542.092 583.935 544.733 583.901 547.949C583.901 551.165 582.361 554.128 579.28 556.836C576.233 559.544 572.154 560.898 567.042 560.898C559.865 560.898 555.396 558.732 553.635 554.398C553.128 553.18 552.874 551.826 552.874 550.336C552.874 548.846 553.229 547.289 553.94 545.664C554.651 544.039 555.717 542.583 557.139 541.297C560.288 538.352 564.333 536.879 569.276 536.879ZM583.038 629.25H553.635V566.129H583.038V629.25ZM644.164 584.715L652.797 566.129H677.02L645.891 629.148C645.281 630.469 643.961 631.129 641.93 631.129C639.899 631.129 638.527 630.469 637.817 629.148L605.063 566.129H634.77L644.164 584.715ZM702.193 623.664C699.485 621.125 697.318 617.943 695.693 614.117C694.102 610.258 693.306 606.111 693.306 601.676C693.306 597.241 693.746 593.398 694.627 590.148C696.387 583.682 699.468 578.249 703.869 573.848C705.968 571.681 708.304 569.853 710.877 568.363C716.158 565.283 721.727 563.742 727.584 563.742C733.474 563.742 738.637 565.689 743.072 569.582C744.494 570.835 745.729 572.273 746.779 573.898L754.041 566.129H770.697V629.25H754.041L746.779 618.738C741.227 626.931 732.814 631.044 721.541 631.078C718.426 631.112 715.091 630.503 711.537 629.25C708.016 628.031 704.901 626.169 702.193 623.664ZM743.326 585.273C742.107 584.562 740.651 584.207 738.959 584.207C737.266 584.207 735.472 584.816 733.576 586.035C731.714 587.22 730.038 588.727 728.548 590.555C725.231 594.651 723.572 598.815 723.572 603.047C723.572 606.026 724.486 608.125 726.314 609.344C728.007 610.461 730.58 610.309 734.033 608.887C737.52 607.431 740.617 605.552 743.326 603.25V585.273ZM826.288 629.25H797.495V543.785H826.288V629.25ZM898.332 589.945C895.218 589.945 892.019 591.079 888.735 593.348C885.451 595.616 883.792 597.766 883.758 599.797V629.25H853.188V566.129H883.758V572.883C885.485 570.276 887.618 568.194 890.157 566.637C892.73 565.079 895.455 564.148 898.332 563.844V589.945ZM925.943 627.879C929.532 628.861 934.034 629.352 939.451 629.352C942.87 629.352 945.156 627.896 946.307 624.984C946.645 624.104 946.814 623.19 946.814 622.242C946.814 621.294 946.645 620.296 946.307 619.246L920.205 566.129H950.471L961.389 590.555L971.596 566.129H998.205L974.49 625.086C971.342 632.771 967.872 638.441 964.08 642.098C959.442 646.566 953.721 648.801 946.916 648.801C937.606 648.801 930.615 647.836 925.943 645.906V627.879Z" fill="black"/>
<path d="M272.917 50C272.917 22.3858 295.303 0 322.917 0H768.75V445.833C768.75 473.448 746.364 495.833 718.75 495.833H272.917V50Z" fill="url(#paint0_linear_16_67)"/>
<path d="M551.255 197.913C551.255 181.665 545.205 173.541 533.106 173.541C527.92 173.541 520.718 175.442 511.499 179.245L488.51 188.752V256.337C530.34 240.78 551.255 221.305 551.255 197.913ZM653.929 200.851C653.929 237.726 635.722 266.996 599.308 288.66L674.326 386.667H537.773L489.202 306.636V386.667H376.33V110.623C449.388 105.437 497.268 102.844 519.969 102.844C542.67 102.844 559.955 104.227 571.825 106.993C604.551 114.483 627.944 130.501 642.002 155.046C649.838 169.104 653.814 184.373 653.929 200.851Z" fill="white"/>
<defs>
<linearGradient id="paint0_linear_16_67" x1="272.917" y1="495.833" x2="768.75" y2="0" gradientUnits="userSpaceOnUse">
<stop stop-color="#43FA91"/>
<stop offset="1" stop-color="#05B852"/>
</linearGradient>
</defs>
</svg>

